<svg width="158" height="178" viewBox="0 0 158 178" fill="none" xmlns="http://www.w3.org/2000/svg">
<path d="M33.2905 99.04L60.409 71.9907L60.409 159.458C60.4094 169.698 68.7345 178 79.004 178C89.2735 178 97.5987 169.698 97.5987 159.458L97.5987 71.991L124.717 99.0404C132.331 106.633 144.676 106.633 152.29 99.0404C159.903 91.4481 159.903 79.1383 152.29 71.546L81.6294 1.08576C80.1772 -0.361915 77.8231 -0.361915 76.3707 1.08576L5.7104 71.546C-1.90346 79.1383 -1.90347 91.4481 5.7104 99.0404C13.3243 106.633 25.669 106.633 33.2828 99.0404L33.2905 99.04Z" fill="white"/>
</svg>
