<svg width="98" height="185" viewBox="0 0 98 185" fill="none" xmlns="http://www.w3.org/2000/svg">
<path d="M62.6644 114.496L62.6751 114.508L62.6861 114.519C65.2202 117.189 66.5618 120.864 66.5618 125.722C66.5618 130.324 65.1073 133.853 62.2926 136.475C59.4698 139.043 55.5495 140.409 50.3516 140.409C44.0856 140.409 39.4741 138.543 36.2833 134.987C33.1254 131.338 31.4382 126.001 31.4382 118.757V117.257H29.9382H3H1.5V118.757C1.5 131.898 5.06221 142.605 12.3218 150.72L12.3303 150.729C19.3989 158.498 29.1986 163.12 41.5811 164.699V182V183.5H43.0811H57.9017H59.4017V182V164.611C70.5911 163.233 79.5631 159.25 86.1853 152.563C93.0899 145.592 96.5 136.535 96.5 125.533C96.5 119.676 95.608 114.489 93.7804 110.006C91.9666 105.495 89.3409 101.502 85.9104 98.0371C82.5013 94.5313 78.3423 91.4364 73.4524 88.7427C68.5933 86.0037 62.4115 83.1232 54.9238 80.0991C47.568 77.1033 42.7575 74.2523 40.2551 71.6109C37.8358 69.0573 36.5648 65.6267 36.5648 61.1609C36.5648 56.2919 37.8815 52.6924 40.3367 50.1585L40.3423 50.1527L40.3479 50.1468C42.7925 47.5688 46.3022 46.1914 51.0973 46.1914C55.836 46.1914 59.4955 47.8947 62.235 51.2814L62.2435 51.292L62.2523 51.3025C65.036 54.619 66.5618 59.8211 66.5618 67.1841V68.6841H68.0618H95H96.5V67.1841C96.5 54.6914 93.3232 44.3877 86.8447 36.4068C80.6106 28.6664 72.0773 23.9243 61.3592 22.1364V3V1.5H59.8592H44.9453H43.4453V3V21.7992C32.6549 23.1337 23.8469 27.1584 17.1277 33.9423L17.1277 33.9423C10.1061 41.0319 6.62665 50.1166 6.62665 61.0668C6.62665 67.3675 7.61318 72.8815 9.63943 77.567L9.64291 77.5751L9.64648 77.5831C11.7132 82.2131 14.5599 86.2643 18.1826 89.726L18.1925 89.7355L18.2026 89.7448C21.8542 93.1082 26.1913 96.0983 31.1994 98.7225L31.2062 98.726L31.2129 98.7295C36.1832 101.27 42.0771 103.833 48.887 106.419C55.5811 108.962 60.1044 111.681 62.6644 114.496Z" fill="white" stroke="white" stroke-width="3"/>
</svg>
