<svg width="179" height="179" viewBox="0 0 179 179" fill="none" xmlns="http://www.w3.org/2000/svg">
<path d="M92.9112 177.969C85.8222 177.951 78.7668 176.994 71.9288 175.125C60.6682 172.085 49.9105 166.772 39.9585 159.333C20.1636 144.542 6.26914 123.35 1.83766 101.194C-2.54234 79.2939 2.44777 56.8934 15.8883 38.1187C29.2881 19.4015 49.4942 6.52791 72.7834 1.86999C96.0727 -2.78794 119.675 1.32353 139.244 13.4478C158.872 25.6083 172.093 44.3666 176.473 66.267C180.905 88.4244 176.23 113.33 163.646 134.597C157.32 145.291 149.434 154.332 140.209 161.469C130.334 169.109 119.4 174.168 107.71 176.506C102.838 177.48 97.8804 177.97 92.9112 177.969Z" fill="#FFCC80"/>
<path d="M176.473 66.267C174.08 54.2433 168.917 42.9429 161.394 33.2629C161.394 33.3533 161.398 33.4431 161.398 33.5335C161.398 91.9358 114.057 139.277 55.6543 139.277C41.1813 139.294 26.8598 136.329 13.5828 130.568C20.4863 141.731 29.4348 151.491 39.9584 159.335C49.9115 166.772 60.6681 172.085 71.9287 175.127C78.7668 176.996 85.8222 177.953 92.9111 177.971C97.8804 177.972 102.838 177.482 107.71 176.508C119.399 174.17 130.333 169.11 140.209 161.47C149.434 154.333 157.32 145.292 163.646 134.598C176.229 113.328 180.905 88.4226 176.473 66.267Z" fill="#FFB74D"/>
<path d="M144.701 178.235H119.813C117.663 178.238 115.589 177.432 114.004 175.977C112.399 174.511 111.435 172.472 111.319 170.301C111.312 170.165 111.309 170.029 111.309 169.887C111.307 168.823 111.51 167.768 111.907 166.781C110.617 166.413 109.43 165.751 108.439 164.847C106.834 163.38 105.87 161.341 105.754 159.17C105.747 159.045 105.743 158.912 105.743 158.756C105.742 157.808 105.903 156.867 106.22 155.973H102.961C100.747 155.973 98.6231 155.094 97.0575 153.528C95.492 151.962 94.6124 149.839 94.6124 147.625C94.6124 147.503 94.6159 147.378 94.6229 147.225C94.7335 145.048 95.6984 143.003 97.3082 141.534C98.2987 140.63 99.4859 139.968 100.776 139.6C100.379 138.613 100.176 137.558 100.178 136.494C100.178 136.376 100.181 136.247 100.188 136.094C100.3 133.918 101.264 131.873 102.874 130.403C104.459 128.95 106.532 128.145 108.683 128.146H129.494C128.558 126.522 128.047 124.688 128.009 122.814C128.005 122.72 128.005 122.643 128.005 122.587C128.004 121.083 128.317 119.595 128.923 118.219C129.505 116.893 130.339 115.694 131.379 114.688C132.415 113.679 133.633 112.875 134.969 112.319C136.343 111.747 137.817 111.451 139.306 111.45H144.701C149.087 111.45 153.429 112.313 157.48 113.992C161.532 115.67 165.213 118.129 168.314 121.23C171.414 124.331 173.874 128.012 175.552 132.063C177.23 136.115 178.094 140.457 178.094 144.842C178.094 149.227 177.23 153.57 175.552 157.621C173.874 161.672 171.414 165.354 168.314 168.454C165.213 171.555 161.532 174.015 157.48 175.693C153.429 177.371 149.087 178.235 144.701 178.235Z" fill="#F5F5F5"/>
<path d="M63.846 178.235H33.3926C24.5364 178.235 16.0428 174.717 9.78047 168.454C3.51814 162.192 0 153.699 0 144.842C0 135.986 3.51814 127.492 9.78047 121.23C16.0428 114.968 24.5364 111.45 33.3926 111.45H44.3531C45.842 111.451 47.316 111.747 48.6906 112.319C50.026 112.875 51.2441 113.679 52.2803 114.688C53.3207 115.694 54.1549 116.893 54.7361 118.219C55.3422 119.595 55.655 121.083 55.6544 122.587V122.779L55.6509 122.796C55.6151 124.676 55.1042 126.517 54.1656 128.146H74.9769C77.1275 128.145 79.2004 128.95 80.7858 130.403C82.3963 131.873 83.3613 133.92 83.4711 136.098C83.4781 136.226 83.4816 136.358 83.4816 136.494C83.4832 137.558 83.2801 138.613 82.8833 139.6C84.1732 139.968 85.3602 140.63 86.3512 141.534C87.9624 143.005 88.9276 145.053 89.0366 147.232C89.0435 147.364 89.047 147.496 89.047 147.625C89.047 149.839 88.1675 151.962 86.6019 153.528C85.0363 155.094 82.9129 155.973 80.6988 155.973H77.4396C77.7565 156.867 77.9177 157.808 77.9161 158.756C77.9161 158.874 77.9127 158.999 77.9092 159.145L77.9057 159.156C77.7951 161.332 76.8301 163.377 75.2204 164.847C74.2298 165.751 73.0426 166.413 71.7524 166.781C72.1492 167.768 72.3524 168.823 72.3507 169.887C72.3507 170.015 72.3472 170.141 72.3403 170.276V170.287C72.2297 172.463 71.2647 174.508 69.6549 175.977C68.0702 177.432 65.9969 178.238 63.846 178.235Z" fill="#F5F5F5"/>
<path d="M39.4906 65.2301C38.8477 65.2293 38.2249 65.006 37.728 64.5981C37.2312 64.1902 36.8908 63.6228 36.7649 62.9924C36.4032 61.1994 36.3985 59.3527 36.7512 57.5579C37.1039 55.7632 37.807 54.0556 38.8203 52.5328C39.8336 51.01 41.1372 49.702 42.6566 48.6835C44.1759 47.6651 45.8812 46.9562 47.6747 46.5975C49.4683 46.2387 51.315 46.2371 53.1092 46.5928C54.9034 46.9485 56.6098 47.6544 58.1309 48.6702C59.652 49.6861 60.9579 50.9918 61.9738 52.5129C62.9897 54.0339 63.6958 55.7403 64.0516 57.5345C64.1255 57.8937 64.1278 58.264 64.0581 58.6241C63.9885 58.9842 63.8483 59.3269 63.6458 59.6327C63.4432 59.9384 63.1822 60.2011 62.8777 60.4056C62.5733 60.6101 62.2314 60.7524 61.8718 60.8244C61.5122 60.8963 61.1418 60.8964 60.7822 60.8247C60.4225 60.7531 60.0805 60.611 59.7759 60.4067C59.4713 60.2024 59.2101 59.9399 59.0073 59.6343C58.8046 59.3287 58.6642 58.986 58.5943 58.626C58.3793 57.551 57.9546 56.5288 57.3446 55.6179C56.7346 54.707 55.9511 53.9252 55.0389 53.3171C54.1267 52.709 53.1037 52.2865 52.0283 52.0738C50.9528 51.861 49.846 51.8622 48.771 52.0772C47.6959 52.2922 46.6738 52.7169 45.7629 53.3269C44.852 53.9369 44.0702 54.7204 43.4621 55.6326C42.2339 57.4748 41.7879 59.7295 42.2222 61.9005C42.3025 62.3045 42.2923 62.7212 42.1922 63.1207C42.0921 63.5201 41.9047 63.8925 41.6435 64.2108C41.3822 64.5292 41.0537 64.7857 40.6814 64.9618C40.3091 65.1379 39.9024 65.2293 39.4906 65.2294V65.2301Z" fill="#424242"/>
<path d="M104.978 52.1325C104.335 52.1318 103.712 51.9085 103.216 51.5006C102.719 51.0926 102.378 50.5253 102.252 49.8948C101.529 46.2764 102.272 42.5186 104.319 39.4482C106.366 36.3779 109.549 34.2464 113.167 33.5227C116.786 32.799 120.544 33.5424 123.614 35.5894C126.684 37.6363 128.816 40.8191 129.539 44.4376C129.684 45.1613 129.535 45.9129 129.126 46.5269C128.717 47.141 128.08 47.5673 127.356 47.712C126.632 47.8567 125.881 47.708 125.267 47.2985C124.653 46.8891 124.227 46.2525 124.082 45.5288C123.872 44.4486 123.451 43.4206 122.843 42.5038C122.234 41.587 121.451 40.7995 120.537 40.1866C119.623 39.5737 118.597 39.1475 117.518 38.9325C116.439 38.7174 115.328 38.7178 114.249 38.9336C113.17 39.1494 112.145 39.5763 111.231 40.1899C110.318 40.8034 109.535 41.5915 108.927 42.5087C108.32 43.4259 107.899 44.4542 107.69 45.5345C107.481 46.6148 107.488 47.7257 107.71 48.8033C107.79 49.2073 107.78 49.6241 107.68 50.0236C107.58 50.4232 107.393 50.7956 107.131 51.114C106.87 51.4324 106.541 51.6889 106.169 51.865C105.797 52.0412 105.39 52.1325 104.978 52.1325Z" fill="#424242"/>
<path d="M150.005 61.6282C149.934 61.2698 149.792 60.9291 149.589 60.6254C149.385 60.3218 149.124 60.0611 148.82 59.8584C148.516 59.6557 148.175 59.5149 147.817 59.4439C147.458 59.373 147.089 59.3734 146.731 59.4451C138.088 61.1725 134.343 54.3524 134.197 54.078C133.855 53.4289 133.27 52.9411 132.571 52.7207C131.871 52.5003 131.112 52.5651 130.46 52.9011C129.808 53.2371 129.315 53.817 129.088 54.5147C128.861 55.2123 128.919 55.9714 129.249 56.6266C130.172 58.3243 131.398 59.8386 132.867 61.0946C136.552 80.5639 118.976 100.47 93.5217 105.56C68.0678 110.65 44.1872 99.0366 40.1011 79.6459C40.9735 77.9218 41.5227 76.0525 41.7217 74.1306C41.7837 73.3951 41.5509 72.6651 41.0746 72.1012C40.5984 71.5374 39.9176 71.1858 39.1821 71.1238C38.4467 71.0619 37.7167 71.2947 37.1528 71.7709C36.5889 72.2472 36.2374 72.9279 36.1754 73.6634C36.1445 73.9921 35.3107 81.7291 26.6686 83.4576C26.3103 83.5292 25.9695 83.6708 25.6659 83.8741C25.3622 84.0775 25.1016 84.3386 24.8989 84.6427C24.6962 84.9468 24.5553 85.2878 24.4844 85.6463C24.4135 86.0048 24.4139 86.3738 24.4856 86.7321C24.5572 87.0905 24.6988 87.4312 24.9021 87.7348C25.1055 88.0385 25.3666 88.2991 25.6707 88.5018C25.9748 88.7045 26.3158 88.8454 26.6743 88.9163C27.0328 88.9872 27.4018 88.9868 27.7601 88.9152C30.7444 88.3618 33.5357 87.0487 35.8648 85.1025C39.0489 94.1056 46.0012 101.608 55.8548 106.535C63.5202 110.367 72.3382 112.33 81.5132 112.33C85.9122 112.324 90.2999 111.885 94.6125 111.017C108.336 108.273 120.43 101.509 128.666 91.9723C135.866 83.635 139.399 74.036 138.875 64.501C140.536 65.0287 142.269 65.2952 144.011 65.2909C145.291 65.2874 146.568 65.1574 147.823 64.9027C148.546 64.7579 149.183 64.3316 149.592 63.7175C150.001 63.1034 150.15 62.3518 150.005 61.6282Z" fill="#EF5350"/>
<path d="M139.136 142.06C139.135 142.797 138.841 143.504 138.32 144.026C137.798 144.548 137.091 144.841 136.353 144.842H95.0994C95.5577 143.577 96.3155 142.442 97.3082 141.534C98.2987 140.63 99.4859 139.968 100.776 139.6C100.734 139.492 100.693 139.385 100.654 139.277H136.353C137.091 139.278 137.798 139.571 138.32 140.093C138.841 140.615 139.135 141.322 139.136 142.06Z" fill="#CFCFCF"/>
<path d="M153.05 125.363C153.049 126.101 152.755 126.808 152.233 127.33C151.712 127.851 151.005 128.145 150.267 128.146H129.494C128.558 126.522 128.047 124.688 128.009 122.814C128.005 122.72 128.005 122.643 128.005 122.587V122.581H150.267C151.005 122.582 151.712 122.875 152.233 123.397C152.755 123.918 153.049 124.626 153.05 125.363Z" fill="#CFCFCF"/>
<path d="M55.6543 122.581V122.779L55.6509 122.796C55.6151 124.676 55.1041 126.517 54.1656 128.146H33.3926C32.6546 128.146 31.9468 127.853 31.4249 127.331C30.903 126.809 30.6099 126.101 30.6099 125.363C30.6099 124.625 30.903 123.917 31.4249 123.396C31.9468 122.874 32.6546 122.581 33.3926 122.581H55.6543Z" fill="#CFCFCF"/>
<path d="M139.136 158.756C139.135 159.494 138.841 160.201 138.32 160.722C137.798 161.244 137.091 161.538 136.353 161.539H106.234C105.956 160.778 105.794 159.979 105.754 159.17C105.747 159.045 105.743 158.912 105.743 158.756C105.742 157.808 105.903 156.867 106.22 155.973H136.353C137.091 155.974 137.798 156.268 138.32 156.789C138.841 157.311 139.135 158.018 139.136 158.756Z" fill="#CFCFCF"/>
<path d="M139.136 169.887C139.135 170.624 138.841 171.332 138.32 171.853C137.798 172.375 137.091 172.668 136.353 172.669H111.799C111.522 171.908 111.36 171.11 111.319 170.301C111.312 170.165 111.309 170.029 111.309 169.887C111.307 168.939 111.468 167.997 111.785 167.104H136.353C137.091 167.105 137.798 167.399 138.32 167.92C138.841 168.442 139.135 169.149 139.136 169.887Z" fill="#CFCFCF"/>
<path d="M88.56 144.842H44.5234C43.7854 144.842 43.0776 144.549 42.5558 144.027C42.0339 143.505 41.7407 142.798 41.7407 142.06C41.7407 141.322 42.0339 140.614 42.5558 140.092C43.0776 139.57 43.7854 139.277 44.5234 139.277H83.005C82.9667 139.385 82.925 139.492 82.8832 139.6C84.1731 139.968 85.3601 140.63 86.3512 141.534C87.3438 142.442 88.1017 143.577 88.56 144.842Z" fill="#CFCFCF"/>
<path d="M77.9161 158.756C77.9161 158.874 77.9126 158.999 77.9091 159.145L77.9056 159.156C77.8681 159.97 77.7074 160.773 77.4291 161.539H44.5234C43.7854 161.539 43.0776 161.245 42.5558 160.724C42.0339 160.202 41.7407 159.494 41.7407 158.756C41.7407 158.018 42.0339 157.31 42.5558 156.788C43.0776 156.266 43.7854 155.973 44.5234 155.973H77.4395C77.7565 156.867 77.9176 157.808 77.9161 158.756Z" fill="#CFCFCF"/>
<path d="M72.3506 169.887C72.3506 170.015 72.3472 170.141 72.3402 170.276V170.287C72.3027 171.1 72.142 171.904 71.8637 172.669H44.5234C43.7854 172.669 43.0776 172.376 42.5558 171.854C42.0339 171.333 41.7407 170.625 41.7407 169.887C41.7407 169.149 42.0339 168.441 42.5558 167.919C43.0776 167.397 43.7854 167.104 44.5234 167.104H71.8741C72.191 167.997 72.3522 168.939 72.3506 169.887Z" fill="#CFCFCF"/>
<path d="M175.468 131.843C173.794 127.875 171.363 124.271 168.313 121.231C167.537 120.454 166.729 119.72 165.888 119.029C168.435 131.305 166.42 144.088 160.222 154.986C154.024 165.883 144.066 174.149 132.214 178.235H144.701C150.212 178.232 155.637 176.867 160.492 174.259C165.347 171.652 169.482 167.884 172.528 163.291C175.573 158.699 177.436 153.424 177.949 147.937C178.462 142.45 177.609 136.921 175.468 131.843Z" fill="#E5E5E5"/>
<path d="M2.62614 131.843C4.30029 127.875 6.73046 124.271 9.78121 121.231C10.5571 120.454 11.3653 119.72 12.2056 119.029C9.65924 131.305 11.6737 144.088 17.872 154.986C24.0703 165.883 34.0275 174.149 45.88 178.235H33.3926C27.8817 178.232 22.457 176.867 17.6019 174.259C12.7468 171.652 8.61214 167.884 5.5663 163.291C2.52046 158.699 0.658062 153.424 0.145067 147.937C-0.367927 142.45 0.484414 136.921 2.62614 131.843Z" fill="#E5E5E5"/>
<path d="M22.2617 78.057C26.8723 78.057 30.6099 74.3194 30.6099 69.7088C30.6099 65.0983 26.8723 61.3607 22.2617 61.3607C17.6512 61.3607 13.9136 65.0983 13.9136 69.7088C13.9136 74.3194 17.6512 78.057 22.2617 78.057Z" fill="#FFE4C0"/>
<path d="M144.701 53.0125C149.312 53.0125 153.05 49.2749 153.05 44.6644C153.05 40.0538 149.312 36.3162 144.701 36.3162C140.091 36.3162 136.353 40.0538 136.353 44.6644C136.353 49.2749 140.091 53.0125 144.701 53.0125Z" fill="#FFE4C0"/>
</svg>
