<svg width="179" height="179" viewBox="0 0 179 179" fill="none" xmlns="http://www.w3.org/2000/svg">
<path d="M89.047 161.398C65.3146 161.398 42.9892 153.038 26.1836 137.859C9.2988 122.608 0 102.308 0 80.6988C0 59.0893 9.2988 38.7897 26.1836 23.5387C42.9892 8.35963 65.3146 0 89.047 0C112.779 0 135.105 8.35963 151.91 23.5387C168.795 38.7897 178.094 59.0893 178.094 80.6988C178.094 102.308 168.795 122.608 151.91 137.859C135.105 153.038 112.779 161.398 89.047 161.398Z" fill="#FFCC80"/>
<path d="M151.91 23.5387C149.841 21.6696 147.69 19.9054 145.458 18.2459C148.642 26.6409 150.271 35.5452 150.267 44.5235C150.267 66.1331 140.968 86.4326 124.083 101.684C107.278 116.863 84.9522 125.222 61.2198 125.222C40.4096 125.222 20.6822 118.793 4.80853 106.976C9.16453 118.481 16.3968 129.019 26.1836 137.859C42.9892 153.038 65.3146 161.398 89.047 161.398C112.779 161.398 135.105 153.038 151.91 137.859C168.795 122.608 178.094 102.308 178.094 80.6988C178.094 59.0893 168.795 38.7897 151.91 23.5387Z" fill="#FFB74D"/>
<path d="M136.353 44.5235C123.458 44.5235 111.433 43.5496 105.999 31.7762C105.69 31.1061 105.66 30.3405 105.915 29.648C106.17 28.9554 106.69 28.3925 107.36 28.0832C108.03 27.7739 108.795 27.7434 109.488 27.9986C110.181 28.2537 110.743 28.7735 111.053 29.4436C114.765 37.4867 122.485 38.9581 136.353 38.9581C137.091 38.9581 137.799 39.2512 138.321 39.7731C138.843 40.295 139.136 41.0028 139.136 41.7408C139.136 42.4788 138.843 43.1866 138.321 43.7085C137.799 44.2303 137.091 44.5235 136.353 44.5235Z" fill="#616161"/>
<path d="M41.7408 44.5235C41.0028 44.5235 40.295 44.2303 39.7731 43.7085C39.2512 43.1866 38.9581 42.4788 38.9581 41.7408C38.9581 41.0028 39.2512 40.295 39.7731 39.7731C40.295 39.2512 41.0028 38.9581 41.7408 38.9581C55.6088 38.9581 63.3291 37.4867 67.0413 29.4436C67.3506 28.7735 67.9135 28.2537 68.606 27.9986C68.949 27.8722 69.3134 27.8147 69.6786 27.8292C70.0437 27.8437 70.4025 27.93 70.7343 28.0832C71.0661 28.2364 71.3645 28.4534 71.6124 28.7219C71.8604 28.9903 72.053 29.305 72.1793 29.648C72.3057 29.9909 72.3632 30.3553 72.3487 30.7205C72.3342 31.0857 72.2478 31.4444 72.0947 31.7762C66.6611 43.5496 54.6363 44.5235 41.7408 44.5235Z" fill="#616161"/>
<path d="M69.568 61.2198H41.7408C41.0028 61.2198 40.295 60.9266 39.7731 60.4048C39.2512 59.8829 38.9581 59.1751 38.9581 58.4371C38.9581 57.6991 39.2512 56.9913 39.7731 56.4694C40.295 55.9475 41.0028 55.6544 41.7408 55.6544H69.568C70.306 55.6544 71.0138 55.9475 71.5357 56.4694C72.0575 56.9913 72.3507 57.6991 72.3507 58.4371C72.3507 59.1751 72.0575 59.8829 71.5357 60.4048C71.0138 60.9266 70.306 61.2198 69.568 61.2198Z" fill="#424242"/>
<path d="M136.353 61.2198H108.526C107.788 61.2198 107.08 60.9266 106.558 60.4048C106.037 59.8829 105.743 59.1751 105.743 58.4371C105.743 57.6991 106.037 56.9913 106.558 56.4694C107.08 55.9475 107.788 55.6544 108.526 55.6544H136.353C137.091 55.6544 137.799 55.9475 138.321 56.4694C138.843 56.9913 139.136 57.6991 139.136 58.4371C139.136 59.1751 138.843 59.8829 138.321 60.4048C137.799 60.9266 137.091 61.2198 136.353 61.2198Z" fill="#424242"/>
<path d="M136.353 178.094H108.526C104.836 178.094 101.297 176.628 98.6876 174.019C96.0783 171.41 94.6124 167.871 94.6124 164.18C94.6124 160.49 96.0783 156.951 98.6876 154.342C101.297 151.733 104.836 150.267 108.526 150.267C109.264 150.266 109.971 149.973 110.493 149.451C111.014 148.929 111.308 148.222 111.309 147.484V61.2198H133.57V147.484C133.571 148.222 133.865 148.929 134.386 149.451C134.908 149.973 135.615 150.266 136.353 150.267C140.043 150.267 143.582 151.733 146.192 154.342C148.801 156.951 150.267 160.49 150.267 164.18C150.267 167.871 148.801 171.41 146.192 174.019C143.582 176.628 140.043 178.094 136.353 178.094Z" fill="#2196F3"/>
<path d="M69.568 178.094H41.7408C38.0507 178.094 34.5117 176.628 31.9024 174.019C29.2931 171.41 27.8272 167.871 27.8272 164.18C27.8272 160.49 29.2931 156.951 31.9024 154.342C34.5117 151.733 38.0507 150.267 41.7408 150.267C42.4786 150.266 43.1859 149.973 43.7076 149.451C44.2292 148.929 44.5227 148.222 44.5235 147.484V61.2198H66.7853V147.484C66.7861 148.222 67.0795 148.929 67.6012 149.451C68.1229 149.973 68.8302 150.266 69.568 150.267C73.2581 150.267 76.7971 151.733 79.4064 154.342C82.0157 156.951 83.4816 160.49 83.4816 164.18C83.4816 167.871 82.0157 171.41 79.4064 174.019C76.7971 176.628 73.2581 178.094 69.568 178.094Z" fill="#2196F3"/>
<path d="M102.961 94.6125C102.223 94.6125 101.515 94.3193 100.993 93.7974C100.471 93.2756 100.178 92.5678 100.178 91.8297C100.175 89.6164 99.2951 87.4945 97.73 85.9294C96.165 84.3644 94.043 83.4841 91.8297 83.4816H86.2643C84.051 83.4841 81.9291 84.3644 80.364 85.9294C78.799 87.4945 77.9186 89.6164 77.9161 91.8297C77.9161 92.5678 77.623 93.2756 77.1011 93.7974C76.5792 94.3193 75.8714 94.6125 75.1334 94.6125C74.3954 94.6125 73.6876 94.3193 73.1657 93.7974C72.6439 93.2756 72.3507 92.5678 72.3507 91.8297C72.3549 88.1409 73.8221 84.6043 76.4305 81.9959C79.0389 79.3875 82.5755 77.9203 86.2643 77.9161H91.8297C95.5186 77.9203 99.0552 79.3875 101.664 81.9959C104.272 84.6043 105.739 88.1409 105.743 91.8297C105.743 92.5678 105.45 93.2756 104.928 93.7974C104.406 94.3193 103.699 94.6125 102.961 94.6125Z" fill="#EF5350"/>
<path d="M69.568 150.267C69.403 150.266 69.2384 150.251 69.0761 150.221C66.1181 157.252 61.3058 163.349 55.1532 167.858C49.0005 172.368 41.7385 175.123 34.1426 175.827C36.3997 177.308 39.0411 178.096 41.7408 178.094H69.568C73.2581 178.094 76.7971 176.628 79.4064 174.019C82.0157 171.409 83.4816 167.871 83.4816 164.18C83.4816 160.49 82.0157 156.951 79.4064 154.342C76.7971 151.733 73.2581 150.267 69.568 150.267Z" fill="#1E88E5"/>
<path d="M136.353 150.267C136.188 150.266 136.024 150.251 135.861 150.221C132.903 157.252 128.091 163.349 121.938 167.858C115.786 172.368 108.524 175.123 100.928 175.827C103.185 177.308 105.826 178.096 108.526 178.094H136.353C140.043 178.094 143.582 176.628 146.192 174.019C148.801 171.409 150.267 167.871 150.267 164.18C150.267 160.49 148.801 156.951 146.192 154.342C143.582 151.733 140.043 150.267 136.353 150.267Z" fill="#1E88E5"/>
<path d="M30.6099 94.6125C35.2205 94.6125 38.9581 90.8749 38.9581 86.2643C38.9581 81.6537 35.2205 77.9161 30.6099 77.9161C25.9994 77.9161 22.2618 81.6537 22.2618 86.2643C22.2618 90.8749 25.9994 94.6125 30.6099 94.6125Z" fill="#FFE4C0"/>
<path d="M147.484 94.6125C152.095 94.6125 155.832 90.8749 155.832 86.2643C155.832 81.6537 152.095 77.9161 147.484 77.9161C142.874 77.9161 139.136 81.6537 139.136 86.2643C139.136 90.8749 142.874 94.6125 147.484 94.6125Z" fill="#FFE4C0"/>
<path d="M41.7408 166.963C44.8145 166.963 47.3062 164.471 47.3062 161.398C47.3062 158.324 44.8145 155.832 41.7408 155.832C38.6671 155.832 36.1754 158.324 36.1754 161.398C36.1754 164.471 38.6671 166.963 41.7408 166.963Z" fill="#90CAF9"/>
<path d="M108.526 166.963C111.6 166.963 114.092 164.471 114.092 161.398C114.092 158.324 111.6 155.832 108.526 155.832C105.452 155.832 102.961 158.324 102.961 161.398C102.961 164.471 105.452 166.963 108.526 166.963Z" fill="#90CAF9"/>
</svg>
